<svg xmlns="http://www.w3.org/2000/svg" viewBox="0 0 60 75"><g transform="translate(1 1)"  stroke-width="2" fill="none" fill-rule="evenodd" stroke-linecap="round" stroke-linejoin="round"><path d="M32.46 34H55l-6.16 21.12A3.996 3.996 0 0 1 45 58H13a3.996 3.996 0 0 1-3.84-2.88L3 34h22.54M25.54 34H2a2.006 2.006 0 0 1-2-2c-.003-.53.21-1.04.59-1.41.37-.38.88-.593 1.41-.59h23.54M32.46 30H56a2.006 2.006 0 0 1 2 2 2.015 2.015 0 0 1-2 2H32.46"/><circle cx="29" cy="32" r="4"/><path d="M31 28.54V6.4a2.015 2.015 0 0 0-2-2 2.006 2.006 0 0 0-2 2v22.14M7.12 18.98a5.453 5.453 0 0 0-2.64 7.26L6.24 30M26.04 29.31l-5.06-10.78a5.467 5.467 0 0 0-7.27-2.64"/><path d="M13.713 15.894L6.769 1.05A1.82 1.82 0 0 0 4.35.172l-3.3 1.543a1.82 1.82 0 0 0-.877 2.42L7.115 18.98M2.486 9.084l6.598-3.086M54.585 30c.276-.963.415-1.96.415-2.963 0-4.903-3.17-8.888-7.096-8.888a5.965 5.965 0 0 0-3.274 1.007 5.965 5.965 0 0 0-3.274-1.007c-3.926 0-7.096 3.985-7.096 8.888 0 1.002.14 2 .415 2.963"/><path d="M48.786 15.702c-1.495 2.442-3.839 3.728-5.234 2.874-1.396-.855-1.314-3.527.181-5.97a6.563 6.563 0 0 1 3.75-2.543 1.468 1.468 0 0 1 1.866 1.142 6.563 6.563 0 0 1-.563 4.497z"/></g><text y="75" font-size="5" font-weight="bold" font-family="'Helvetica Neue', Helvetica, Arial-Unicode, Arial, Sans-serif">Created by Ben Davis</text><text y="80" font-size="5" font-weight="bold" font-family="'Helvetica Neue', Helvetica, Arial-Unicode, Arial, Sans-serif">from the Noun Project</text></svg>