<svg xmlns="http://www.w3.org/2000/svg" viewBox="0 0 64 80"><g data-name="line expand"><path d="M23 40h2v2a1 1 0 0 0 2 0v-2h2a1 1 0 0 0 0-2h-2v-2a1 1 0 0 0-2 0v2h-2a1 1 0 0 0 0 2zM41 38h-2v-2a1 1 0 0 0-2 0v2h-2a1 1 0 0 0 0 2h2v2a1 1 0 0 0 2 0v-2h2a1 1 0 0 0 0-2zM29 45a3 3 0 1 0 3-3 3 3 0 0 0-3 3zm3-1a1 1 0 1 1-1 1 1 1 0 0 1 1-1z"/><path d="M55.454 29.441a7.226 7.226 0 0 0-2.53-.441A6.991 6.991 0 0 0 40 26.408v-1.383l.943-16.031c.019 0 .037.006.057.006a3.012 3.012 0 1 0-2.147-.912l-3.87 8.224L33.2 8.744a3 3 0 1 0-2.406 0l-1.78 7.568L25.4 8.635a3 3 0 1 0-2.357.2L24 25.025v1.382A6.992 6.992 0 0 0 11.076 29a7.248 7.248 0 0 0-2.53.439 7 7 0 0 0-2.055 11.915 5.5 5.5 0 0 0 8.939 6.4 16.986 16.986 0 0 0 33.14 0 5.5 5.5 0 0 0 8.939-6.4 7 7 0 0 0-2.055-11.913zM26 29v-3h12v3zM41 5a1 1 0 1 1-1 1 1 1 0 0 1 1-1zm-9 0a1 1 0 1 1-1 1 1 1 0 0 1 1-1zm-2.562 15.327a1 1 0 0 0 .869-.765L32 12.366l1.693 7.2a1 1 0 0 0 1.878.2l3.129-6.65L38.057 24H25.943L25.3 13.116l3.126 6.643a1 1 0 0 0 1.012.568zM24 5a1 1 0 1 1-1 1 1 1 0 0 1 1-1zM13.506 40.316L12.32 41l1.015.92a3.441 3.441 0 0 1 .94 1.352 3.5 3.5 0 1 1-5.63-1.357L9.652 41l-1.176-.687A4.994 4.994 0 0 1 10.984 31a5.074 5.074 0 0 1 .851.072l1.187.2L13 30.074a5 5 0 0 1 9.678-1.824 4.993 4.993 0 0 1-5.523 6.676l-1.186-.2.018 1.2a5 5 0 0 1-2.481 4.39zM32 59a14.992 14.992 0 0 1-13.228-22.062A6.889 6.889 0 0 0 24.924 31h14.152a6.919 6.919 0 0 0 6.158 5.944A15 15 0 0 1 32 59zm25.687-21.251a4.933 4.933 0 0 1-2.163 2.565L54.348 41l1.007.917a3.5 3.5 0 1 1-5.63 1.358 3.437 3.437 0 0 1 .94-1.353L51.68 41l-1.186-.687a5 5 0 0 1-2.485-4.391l.018-1.2-1.186.2A5 5 0 1 1 51 30.074l-.018 1.2 1.187-.2a5.025 5.025 0 0 1 2.588.24 5 5 0 0 1 2.934 6.435z"/><path d="M39 48a2.987 2.987 0 0 0-1.487.4l-2.039 1.165a7.156 7.156 0 0 1-6.946 0L26.491 48.4a3 3 0 1 0-2.979 5.2l2.038 1.17a13.039 13.039 0 0 0 12.9 0l2.039-1.17A3 3 0 0 0 39 48zm-12.458 5.033L24.5 51.868a1 1 0 1 1 .994-1.735l2.04 1.167a9.184 9.184 0 0 0 8.931 0l2.04-1.166a1.027 1.027 0 0 1 1.363.373 1 1 0 0 1-.371 1.364l-2.039 1.165a11.222 11.222 0 0 1-10.916-.003z"/></g><text y="79" font-size="5" font-weight="bold" font-family="'Helvetica Neue', Helvetica, Arial-Unicode, Arial, Sans-serif">Created by supalerk laipawat</text><text y="84" font-size="5" font-weight="bold" font-family="'Helvetica Neue', Helvetica, Arial-Unicode, Arial, Sans-serif">from the Noun Project</text></svg>