<svg xmlns="http://www.w3.org/2000/svg" viewBox="0 0 100 125"><path d="M89.003 35.147a4.792 4.792 0 0 0-2.679 8.764L75.458 60.307l-3.836-27.811c2.328-.326 4.128-2.305 4.128-4.725a4.792 4.792 0 0 0-9.582 0 4.78 4.78 0 0 0 3.095 4.467l-8.055 22.056-9.813-32.093c1.961-.6 3.396-2.402 3.396-4.561a4.792 4.792 0 0 0-9.582 0c0 2.158 1.436 3.961 3.396 4.561l-9.813 32.093-8.051-22.045c1.823-.677 3.13-2.418 3.13-4.478a4.792 4.792 0 0 0-9.582 0c0 2.406 1.778 4.379 4.09 4.721l-3.837 27.814-10.928-16.487a4.78 4.78 0 0 0 2.174-4.006 4.792 4.792 0 1 0-4.791 4.791c.406 0 .795-.066 1.172-.161l9.716 37.916h56.23l9.687-37.801c.386.101.783.171 1.201.171a4.791 4.791 0 1 0 0-9.582zm-78.006 6.937a2.271 2.271 0 1 1 0-4.543 2.271 2.271 0 0 1 0 4.543zM26.81 27.771a2.271 2.271 0 1 1 4.543 0 2.271 2.271 0 0 1-4.543 0zM32 74.643a3.56 3.56 0 1 1-.001-7.119A3.56 3.56 0 0 1 32 74.643zm15.729-57.002a2.271 2.271 0 1 1 4.543 0 2.271 2.271 0 0 1-4.543 0zM50 76.834a5.75 5.75 0 1 1 0-11.5 5.75 5.75 0 1 1 0 11.5zm18.688-49.063a2.271 2.271 0 1 1 4.543 0 2.271 2.271 0 0 1-4.543 0zM68 74.643a3.56 3.56 0 1 1-.001-7.119A3.56 3.56 0 0 1 68 74.643zm21.003-32.434a2.271 2.271 0 1 1 0-4.543 2.271 2.271 0 0 1 0 4.543z"/><text y="115" font-size="5" font-weight="bold" font-family="'Helvetica Neue', Helvetica, Arial-Unicode, Arial, Sans-serif">Created by Pundimon</text><text y="120" font-size="5" font-weight="bold" font-family="'Helvetica Neue', Helvetica, Arial-Unicode, Arial, Sans-serif">from the Noun Project</text></svg>