<svg xmlns="http://www.w3.org/2000/svg" viewBox="0 0 100 125"><g fill-rule="evenodd" color="#000"><path style="text-indent:0;text-transform:none;block-progression:tb" d="M87.56 43.969a7.493 7.493 0 0 0-3.188.75h-.031L65.622 53.75c-.888-2.05-3.033-3.475-5.437-3.406l-10.75.312c-2.637 0-4.641-.616-7.157-1.343-2.522-.73-5.51-1.532-9.656-1.532-3.417 0-8.033 1.049-11.781 2.313V47.75c0-.262-.056-.54-.156-.781-.1-.242-.222-.471-.407-.656-.185-.186-.414-.306-.656-.407a2.09 2.09 0 0 0-.781-.156H7.997c-.262 0-.508.056-.75.156s-.471.221-.656.407a2.048 2.048 0 0 0-.594 1.437V77.5a2.05 2.05 0 0 0 .594 1.406 2.048 2.048 0 0 0 1.406.594h10.844a2.05 2.05 0 0 0 1.438-.594c.184-.185.305-.414.406-.656.1-.242.156-.488.156-.75v-2.562c13.168-2.33 21.013 1.656 32.875 1.656 2.452 0 5.032-1.205 8.25-2.875 3.218-1.671 6.9-3.939 10.625-6.344 7.448-4.81 15.06-10.284 19.031-12.969 1.362-.922 2.178-2.376 2.344-3.812.166-1.437-.231-2.837-1.031-4-1.101-1.6-3.103-2.652-5.375-2.625zm.28 3.875c.902-.011 1.436.484 1.813 1.031.287.417.387.907.344 1.281-.043.375-.142.631-.594.938-4.09 2.765-11.67 8.203-19 12.937-3.666 2.368-7.257 4.555-10.281 6.125-3.024 1.57-5.649 2.436-6.406 2.438-10.736 0-19.144-3.978-32.875-1.72v-1.718c0-.264-.026-.536-.125-.781a2.023 2.023 0 0 0-1.875-1.25c-.264 0-.507.055-.75.156a2.017 2.017 0 0 0-1.25 1.875V75.5h-.97V49.75h.97v6.344c0 .264.057.505.156.75a2.021 2.021 0 0 0 1.844 1.25 2.05 2.05 0 0 0 1.437-.594c.186-.188.339-.411.438-.656.099-.245.128-.486.125-.75v-1.75c3.533-1.296 8.947-2.563 11.78-2.563 3.655 0 6.105.665 8.563 1.375 2.458.711 4.988 1.5 8.282 1.5h.062l10.78-.312c1.015-.03 1.75.758 1.75 1.5s-.717 1.48-1.905 1.531l-20.532.875c-.264.01-.509.047-.75.156-.24.11-.476.276-.656.469-.18.193-.315.44-.406.688a1.878 1.878 0 0 0-.125.75c.01.263.075.542.187.78.113.24.273.449.47.626.195.177.437.318.687.406.249.088.517.14.78.125l20.532-.906c2.148-.092 4.16-1.274 5.125-3.094l20.625-9.906c.7-.335 1.279-.494 1.75-.5zM34.31 32.344c-3.17 0-5.782 2.611-5.782 5.781 0 3.165 2.612 5.75 5.781 5.75h8.063c3.17 0 5.781-2.585 5.781-5.75 0-3.17-2.612-5.781-5.781-5.781h-8.063zm0 4h8.062c.99 0 1.781.79 1.781 1.781 0 .975-.79 1.781-1.781 1.781h-8.063c-.99 0-1.78-.806-1.78-1.781 0-.99.79-1.781 1.78-1.781zM62.81 32.344c-3.166 0-5.75 2.611-5.75 5.781 0 3.165 2.584 5.75 5.75 5.75h8.093c3.165 0 5.781-2.585 5.781-5.75 0-3.17-2.616-5.781-5.78-5.781h-8.095zm0 4h8.093c.975 0 1.781.79 1.781 1.781 0 .975-.806 1.781-1.78 1.781h-8.095c-.975 0-1.75-.806-1.75-1.781 0-.99.775-1.781 1.75-1.781zM48.56 20.5c-3.17 0-5.782 2.612-5.782 5.781 0 3.17 2.618 5.75 5.781 5.75h8.094c3.163 0 5.75-2.586 5.75-5.75 0-3.163-2.58-5.78-5.75-5.78H48.56zm0 4h8.093c.99 0 1.75.785 1.75 1.781 0 .997-.753 1.75-1.75 1.75H48.56c-.996 0-1.78-.76-1.78-1.75s.79-1.781 1.78-1.781z" overflow="visible"/></g><text y="115" font-size="5" font-weight="bold" font-family="'Helvetica Neue', Helvetica, Arial-Unicode, Arial, Sans-serif">Created by alvianwijaya</text><text y="120" font-size="5" font-weight="bold" font-family="'Helvetica Neue', Helvetica, Arial-Unicode, Arial, Sans-serif">from the Noun Project</text></svg>