<svg xmlns="http://www.w3.org/2000/svg" viewBox="0 0 100 125"><path d="M77.671 82.92a1.029 1.029 0 0 0-.096-.138 18.337 18.337 0 0 0-2.325-3.143c.175-.36.269-.758.246-1.172a2.357 2.357 0 0 0-1.003-1.804 19.618 19.618 0 0 0-4.465-2.336c-.767-.283-1.671-.129-2.321.389l-.055.044-.078-.027a16.384 16.384 0 0 0-1.008-.302 13.677 13.677 0 0 0 1.625-1.416c2.343-2.39 3.779-5.502 4.19-8.85a1.01 1.01 0 0 0 .078-.216 1.135 1.135 0 0 0-.002-.489 16.795 16.795 0 0 0-.158-3.945 5.861 5.861 0 0 0 4.122-4.814l.48-3.384c.388-2.81-1.288-5.442-3.861-6.365 1.117-.932 1.844-2.316 1.844-3.881v-8.702a3.276 3.276 0 0 0-3.273-3.273h-1.803c-1.518 0-2.868.684-3.799 1.744a20.014 20.014 0 0 0-1.553-1.5 21.26 21.26 0 0 0-1.886-1.432c.19-.621.362-1.234.518-1.828.226-.859.439-1.67.734-2.507.133-.377.295-.745.457-1.058.494.231 1.04.37 1.62.37 2.123 0 3.85-1.727 3.85-3.85s-1.727-3.85-3.85-3.85a3.854 3.854 0 0 0-3.85 3.85c0 .251.028.495.074.732l-.005.002a.999.999 0 0 0-.368.479 8.395 8.395 0 0 1-.788.656c-.304.201-.865.252-1.274.29-.4.042-.685-.141-.854-.295a1.575 1.575 0 0 1-.491-1.153c.011-.357.485-1.928.716-2.442.022-.048.02-.099.034-.149 1.984-.153 3.556-1.798 3.556-3.82 0-2.123-1.727-3.85-3.85-3.85s-3.85 1.727-3.85 3.85c0 1.12.489 2.122 1.256 2.826-.242.335-.44.557-.594.729a3.849 3.849 0 0 0-.357.443c-.24.367-.477.705-.739.806-.239.096-.588.028-.859-.163-.389-.279-.624-.734-.75-1.06-.212-.562-.352-1.222-.487-1.86l-.113-.527c-.089-.386-.17-.799-.248-1.229 1.338-.769 2.252-2.197 2.252-3.848 0-2.361-1.851-4.279-4.175-4.426-.047-.005-.089-.026-.139-.026-.024 0-.046.007-.07.007-.023 0-.045-.007-.069-.007-.049 0-.092.021-.139.028-2.324.147-4.175 2.065-4.175 4.426 0 1.651.914 3.079 2.252 3.848-.078.431-.159.847-.25 1.239l-.109.512c-.135.64-.275 1.302-.485 1.857-.129.333-.364.789-.745 1.062-.277.195-.626.263-.874.166-.256-.099-.492-.437-.728-.797a3.897 3.897 0 0 0-.363-.451 8.449 8.449 0 0 1-.593-.728 3.825 3.825 0 0 0 1.256-2.826c0-2.123-1.727-3.85-3.85-3.85s-3.85 1.727-3.85 3.85c0 2.022 1.573 3.667 3.557 3.82.014.05.012.1.034.149.231.514.705 2.086.716 2.439.001.441-.183.874-.491 1.156a1.12 1.12 0 0 1-.854.295c-.41-.038-.971-.089-1.269-.286a8.202 8.202 0 0 1-.795-.661.995.995 0 0 0-.37-.48l-.003-.001c.046-.237.074-.481.074-.732 0-2.123-1.727-3.85-3.85-3.85s-3.85 1.727-3.85 3.85 1.727 3.85 3.85 3.85c.581 0 1.126-.139 1.621-.37.162.313.324.681.457 1.059.294.835.507 1.645.732 2.502.158.599.331 1.218.523 1.844-.646.442-1.276.909-1.866 1.418-.6.514-1.128 1.043-1.629 1.583-.932-1.107-2.31-1.826-3.866-1.826h-1.803a3.276 3.276 0 0 0-3.273 3.273v8.702c0 1.562.724 2.944 1.837 3.876-2.586.912-4.27 3.548-3.877 6.37l.473 3.382c.327 2.343 2.059 4.243 4.285 4.86a16.823 16.823 0 0 0-.165 3.589c-.138.24-.188.521-.128.802.034.156.125.321.251.489.454 3.247 1.878 6.253 4.158 8.578a13.672 13.672 0 0 0 1.659 1.441c-.29.079-.591.167-.902.272-.03.009-.062.021-.092.031l-.053-.043c-.65-.521-1.556-.675-2.322-.39a19.637 19.637 0 0 0-4.48 2.348 2.353 2.353 0 0 0-1 1.799c-.025.419.067.824.242 1.191a17.88 17.88 0 0 0-2.311 3.118 1.012 1.012 0 0 0-.095.137 9.235 9.235 0 0 0-.865 2.058c-.115.408.039.844.385 1.089C30.096 91.901 39.817 94.99 50 95c10.144 0 19.878-3.089 28.15-8.933.346-.245.5-.682.385-1.09a9.232 9.232 0 0 0-.864-2.057zm-8.339-6.691c.148.011.289.067.426.125.665.276 4.422 1.75 3.494 2.628-3.269 3.092-6.923 6.114-11.049 7.985a31.023 31.023 0 0 1-5.207 1.814c-.297.07-.559.104-.799.104-1.316 0-2.5-.819-2.935-2.004l-.869-2.669a26.7 26.7 0 0 0 8.262-2.256c1.688-.764 3.249-1.77 4.735-2.869.846-.623 2.853-2.915 3.942-2.858zm-3.59.061c-1.876 1.489-3.736 2.861-5.91 3.844a24.648 24.648 0 0 1-7.678 2.066c.892-.967 1.864-2.503 2.625-4.126.134-.103.28-.209.391-.303l.078-.065c.226-.201.504-.302.817-.291 1.545.075 4.72-.004 7.922-1.466.394.058 1.017.161 1.755.341zm-20.304-3.012c0-.282.043-.568.08-.78a4.332 4.332 0 0 1 4.271-3.57 4.356 4.356 0 0 1 4.35 4.35c0 2.021-1.975 6.008-3.5 7.619-.375.391-.584.511-.66.545-1.206-.299-4.541-5.539-4.541-8.164zm7.315-9.796c-1.199-1.235-2.773-4.371-1.321-6.016.612-.694 1.856-1.176 2.646-1.674a4.087 4.087 0 0 1 1.115-.075c2.395.193 4.646 1.82 5.474 3.954l.193.521c.301.825.612 1.678 1.193 2.451.916 1.212 2.354 1.93 4.272 2.132.531.058 1.281.038 2.047-.013-.409.231-.783.433-1.031.554-1.363.67-3.249 1.01-5.607 1.01-.837 0-1.727-.044-2.643-.131-2.633-.252-4.884-1.216-6.338-2.713zm-2.886-8.081a3.324 3.324 0 0 1-3.224-3.307c0-2.182 1.224-6.189 3.224-6.189s3.224 4.007 3.224 6.189a3.325 3.325 0 0 1-3.224 3.307zm-4.212.391l2.641 1.666c1.256 1.853.065 4.603-1.316 6.025-1.454 1.497-3.705 2.46-6.337 2.712a28.15 28.15 0 0 1-2.644.131c-2.358 0-4.245-.34-5.608-1.01a22.226 22.226 0 0 1-1.03-.554c.767.049 1.521.069 2.043.013 1.92-.203 3.359-.92 4.277-2.135.579-.771.89-1.624 1.191-2.448l.191-.517c.83-2.138 3.081-3.765 5.473-3.958a4.125 4.125 0 0 1 1.119.075zm2.758 9.085a8.555 8.555 0 0 0 1.454-2.03 8.58 8.58 0 0 0 1.448 2.025 7.16 7.16 0 0 1-2.93.031l.028-.026zm18.35 6.738c-1.421 1.45-3.218 2.485-5.146 3.1-.965.308-1.962.513-2.969.623-.263.029-2.844.024-2.865.1.223-.786.355-1.527.355-2.159 0-3.194-2.373-5.837-5.447-6.278a8.542 8.542 0 0 0 2.509-.642c1.593.982 3.543 1.621 5.701 1.828.979.093 1.933.14 2.833.14 2.667 0 4.85-.409 6.489-1.215a27.57 27.57 0 0 0 1.682-.9c-.606 2.029-1.657 3.888-3.142 5.403zM74.92 51.04l-.48 3.385a3.86 3.86 0 0 1-2.577 3.124 17.054 17.054 0 0 0-.736-2.18 5.409 5.409 0 0 1-.26-3.438c.437-1.8.669-3.546.724-5.293.003 0 .005.002.008.003a3.913 3.913 0 0 1 3.321 4.399zm-5.113-19.945h1.803c.702 0 1.273.571 1.273 1.273v8.702a3.08 3.08 0 0 1-3.077 3.077c-.723 0-1.03-1.28-1.161-2.354-.325-2.674-.876-5.023-1.684-7.184l-.227-.606a3.083 3.083 0 0 1 3.073-2.908zm-3.908-13.909c1.02 0 1.85.83 1.85 1.85s-.83 1.85-1.85 1.85-1.85-.83-1.85-1.85.83-1.85 1.85-1.85zm-7.1-5.699c1.02 0 1.85.83 1.85 1.85s-.83 1.85-1.85 1.85-1.85-.83-1.85-1.85.83-1.85 1.85-1.85zm-8.872-4.48c1.32.038 2.385 1.118 2.385 2.447s-1.064 2.409-2.385 2.447c-1.32-.038-2.385-1.118-2.385-2.447s1.064-2.409 2.385-2.447zm-10.723 6.329c0-1.02.83-1.85 1.85-1.85s1.85.83 1.85 1.85-.83 1.85-1.85 1.85-1.85-.83-1.85-1.85zm.78 9.852a3.099 3.099 0 0 0 2.386-.811 3.561 3.561 0 0 0 1.141-2.636c0-.165-.034-.385-.081-.624.291.347.66.687 1.174.885.307.121.636.18.972.18.613 0 1.245-.198 1.787-.578.624-.448 1.126-1.129 1.455-1.978.267-.707.423-1.445.573-2.159l.104-.483c.082-.352.157-.72.229-1.102.046.006.087.027.134.027.024 0 .046-.007.07-.007.024 0 .046.007.07.007.047 0 .088-.021.133-.027.071.381.146.746.226 1.092l.107.498c.151.712.306 1.449.576 2.161.325.841.828 1.522 1.46 1.976a3.12 3.12 0 0 0 1.778.573c.334 0 .662-.059.966-.179.518-.2.889-.541 1.181-.889-.047.24-.081.461-.081.626a3.56 3.56 0 0 0 1.141 2.635 3.085 3.085 0 0 0 2.386.811c.584-.054 1.466-.135 2.189-.61a15.89 15.89 0 0 0-.124.331c-.322.914-.556 1.803-.782 2.663-.204.776-.397 1.513-.65 2.264a45.332 45.332 0 0 1-10.576 1.469 45.384 45.384 0 0 1-10.576-1.468 34.592 34.592 0 0 1-.652-2.269c-.226-.858-.459-1.747-.781-2.659a12.515 12.515 0 0 0-.124-.331c.721.476 1.603.557 2.189.612zm-7.88-4.152c0-1.02.83-1.85 1.85-1.85s1.85.83 1.85 1.85-.83 1.85-1.85 1.85-1.85-.83-1.85-1.85zm4.622 11.818a17.906 17.906 0 0 1 1.606-1.221c7.665 2.098 15.521 2.1 23.206-.009.555.384 1.099.789 1.613 1.232.69.592 1.284 1.196 1.829 1.825.048.055-.234 1.256-.215 1.485.104 1.242.808 2.471 1.121 3.683a32.15 32.15 0 0 1 .774 4.186c.391 3.207 1.771 4.022 2.939 4.104a23.606 23.606 0 0 1-.675 5.313 7.386 7.386 0 0 0 .358 4.693c.399.946.695 1.893.882 2.83.262 1.214.366 2.429.33 3.619-.306.019-.653.047-1.036.078-1.021.084-2.21.192-2.921.113-1.367-.144-2.313-.586-2.888-1.348-.401-.533-.649-1.212-.911-1.932l-.206-.555c-1.114-2.871-3.999-4.972-7.183-5.228-.18-.014-.362-.001-.543.002a5.186 5.186 0 0 0 .284-1.633c0-2.855-1.532-8.189-5.224-8.189s-5.224 5.334-5.224 8.189c0 .571.113 1.114.284 1.632-.182-.003-.364-.016-.547-.002a8.67 8.67 0 0 0-5.037 2.176c-1.718 1.536-1.939 3.782-3.258 5.536-.578.764-1.523 1.206-2.894 1.35-.694.079-1.895-.029-2.917-.113a69.624 69.624 0 0 0-.893-.07 15.106 15.106 0 0 1 .331-3.643c.185-.922.48-1.87.88-2.816a7.464 7.464 0 0 0 .368-4.691 23.311 23.311 0 0 1-.675-5.331c1.134-.141 2.414-1.017 2.788-4.087a32.21 32.21 0 0 1 .8-4.281c.209-.797.613-1.615.86-2.434.133-.442.262-.928.243-1.394-.01-.234-.322-.963-.184-1.125a17.21 17.21 0 0 1 1.935-1.944zm-9.877 1.515c0-.702.571-1.273 1.273-1.273h1.803a3.08 3.08 0 0 1 3.072 2.908l-.227.607c-.808 2.16-1.358 4.51-1.684 7.184-.131 1.074-.438 2.354-1.161 2.354a3.08 3.08 0 0 1-3.077-3.077v-8.703zm-1.586 22.053l-.473-3.381a3.901 3.901 0 0 1 3.319-4.397c.064-.009.123-.037.184-.058.053 1.798.289 3.593.724 5.346a5.468 5.468 0 0 1-.269 3.437 17.04 17.04 0 0 0-.749 2.23c-1.424-.436-2.525-1.664-2.736-3.177zm4.741 11.892c.575.329 1.122.609 1.505.797 1.64.807 3.823 1.215 6.49 1.215.9 0 1.854-.047 2.834-.14 2.13-.204 4.057-.83 5.639-1.791a8.595 8.595 0 0 0 2.472.607 6.316 6.316 0 0 0-5.396 5.149c-.051.296-.11.691-.11 1.126 0 .596.142 1.338.388 2.146-.038 0-.074-.008-.112-.007-1.976.094-6.958-.085-10.603-3.802-1.459-1.487-2.496-3.31-3.107-5.3zm13.792 11.102c.315-.004.604.089.83.29.045.039.096.075.144.114.792 1.658 1.851 3.29 2.94 4.368a24.77 24.77 0 0 1-7.54-2.054c-2.174-.984-4.034-2.356-5.911-3.846a18.842 18.842 0 0 1 1.657-.324c3.193 1.45 6.351 1.528 7.88 1.452zm-17.136.889c.711-.873 2.096-1.334 3.103-1.748.35-.144.806-.417 1.179-.339 1.227.255 2.414 1.93 3.404 2.673 1.566 1.175 3.211 2.257 4.999 3.066a26.78 26.78 0 0 0 8.204 2.252l-.859 2.639a3.131 3.131 0 0 1-3.731 1.938 31.972 31.972 0 0 1-5.221-1.808c-3.275-1.487-5.944-3.633-8.364-5.58-.886-.713-1.708-1.519-2.555-2.277-.114-.102-.231-.208-.29-.348-.059-.143-.005-.301.131-.468zm-2.675 5.751a.964.964 0 0 0 .089-.13 15.935 15.935 0 0 1 2.014-2.781l.188.169c1.002.903 1.626 1.464 1.911 1.693 2.447 1.968 5.22 4.198 8.73 5.793a34.06 34.06 0 0 0 5.542 1.921 5.146 5.146 0 0 0 6.121-3.22l.373-1.144.006 6.631c-9.117-.2-17.844-2.997-25.346-8.13.109-.278.234-.548.372-.802zM51 92.988c.197-.004-.008-6.009-.019-6.622.158.368.252.785.392 1.169.733 2.004 2.672 3.351 4.824 3.351.397 0 .809-.052 1.274-.162a33.12 33.12 0 0 0 5.556-1.935c3.533-1.594 6.317-3.842 8.776-5.828.235-.186.901-.783 1.969-1.745l.107-.096a16.634 16.634 0 0 1 2.05 2.813c.025.042.053.083.083.121.139.254.264.524.373.804-7.513 5.134-16.242 7.933-25.385 8.13z"/><path d="M34.121 43.342a1 1 0 0 0 1.311.531 9.306 9.306 0 0 1 2.904-.713 9.463 9.463 0 0 1 4.389.714 1 1 0 0 0 .773-1.845 11.492 11.492 0 0 0-5.319-.864 11.33 11.33 0 0 0-3.527.865 1 1 0 0 0-.531 1.312z"/><circle cx="40.502" cy="47.078" r="2"/><path d="M56.763 43.953a1 1 0 0 0 .386-.078 9.47 9.47 0 0 1 4.389-.714 9.306 9.306 0 0 1 2.904.713 1.001 1.001 0 0 0 .78-1.842 11.309 11.309 0 0 0-3.527-.865c-1.791-.14-3.63.157-5.319.864a1 1 0 0 0 .387 1.922z"/><circle cx="59.372" cy="47.078" r="2"/><text y="115" font-size="5" font-weight="bold" font-family="'Helvetica Neue', Helvetica, Arial-Unicode, Arial, Sans-serif">Created by Maxim Kulikov</text><text y="120" font-size="5" font-weight="bold" font-family="'Helvetica Neue', Helvetica, Arial-Unicode, Arial, Sans-serif">from the Noun Project</text></svg>