<svg xmlns="http://www.w3.org/2000/svg" viewBox="0 0 791 925" fill-rule="evenodd" clip-rule="evenodd" shape-rendering="geometricPrecision" text-rendering="geometricPrecision" image-rendering="optimizeQuality"><path class="fil0" d="M656 144c115 36 167 197 115 360-51 163-185 265-300 229S304 536 356 373c51-162 185-265 300-229zM455 538c22 32 97 57 141 43-25 20-50 43-87 33-39-13-46-44-54-76zm151-127c37-14 112 9 141 45-10-31-17-64-53-77-39-12-63 10-88 32zm-202-64c37-14 112 9 141 45-10-31-17-64-53-77-40-11-63 10-88 32z"/><path class="fil0" d="M142 6c110-31 233 63 286 212-36 40-66 92-85 151-9 29-14 58-17 86-17-12-36-20-60-14-40 11-48 42-57 74 19-26 72-45 115-44-3 43 1 83 11 120-8 3-16 7-25 9-116 33-247-74-294-238C-30 198 26 39 142 6zM32 277c37 15 113-6 142-41-10 30-18 63-55 75-40 10-63-11-87-34zm204-58c37 15 112-6 142-41-10 31-18 64-55 75-40 11-63-11-87-34z"/><text y="755" font-size="5" font-weight="bold" font-family="'Helvetica Neue', Helvetica, Arial-Unicode, Arial, Sans-serif">Created by Kangrif</text><text y="760" font-size="5" font-weight="bold" font-family="'Helvetica Neue', Helvetica, Arial-Unicode, Arial, Sans-serif">from the Noun Project</text></svg>