<svg xmlns="http://www.w3.org/2000/svg" viewBox="0 0 800 1000"><defs><style>.fil0{stroke-width:8}</style></defs><path class="fil0" d="M385.66 14.83c5.85-4.22 13.94-4.95 20.49-1.99 7.74 3.27 12.87 11.79 12.22 20.16-.45 8.08-6.24 14.99-13.59 17.96 7.07 30.4 26.01 57.98 52.1 75.19 22.1 15.23 49.29 22.43 76.01 21.42 5.7-.32 11.38-1.01 17.06-1.55-1.26-4.16-2.15-8.62-.94-12.9 1.78-7.58 8.19-13.72 15.8-15.26 8.81-2.28 18.79 2.38 22.79 10.54 3.76 6.9 2.97 16-2.02 22.1-5.73 7.44-16.48 9.87-25 6.06-6.08 20.93-11.98 41.91-18.21 62.8 3.69 3 7.03 6.84 7.83 11.69 1.3 5.68-.84 11.46-4.39 15.88 32.29 32.5 53.58 76.22 57.19 122.05 1.3 10.62.78 21.33.87 32 .03 41.02-.06 82.04.06 123.06.46 19.83 7.39 39.64 20.3 54.81 8.03 8.49 14.01 18.84 18.2 29.72 5.97 16.18 6.33 34.23 2.07 50.87-5.81 20.95-20.09 39.25-38.88 50.16-18.31 11.08-40.83 13.5-61.58 9.42-4.68-.95-8.29 2.73-11.5 5.49-8.76 7.43-19.18 12.82-30.16 16.12-8.88 2.73-18.25 2.93-27.45 3.26-4.7.11-8.25 5.26-6.78 9.68 1.42 4.26 5.34 6.93 8.79 9.49 13.47 9.85 30.56 13.55 47.03 12.51 11.03.04 22.06-.07 33.09.03 3.74-.04 6.89 3.81 6.4 7.47-.21 3.23-3.1 6.18-6.39 6.16-8.36.14-16.72-.02-25.07.04-11.37-.13-22.89.66-34.09-1.75-17.59-4.16-33.81-14.24-45-28.47-11.06-13.54-17.01-30.77-18.07-48.12 0-12.32.03-24.65.01-36.97-.06-3.32-.61-7.23-3.64-9.17-3.67-2.36-8.15-1.23-12.18-.88-13.91 1.64-27.97 1.25-41.83-.59-2.97-.45-6.26-1.08-8.94.69-3.31 2.1-4.25 6.31-4.13 9.99.02 11.02.02 22.04.02 33.06-.97 14.23-4.97 28.42-12.71 40.49-13.67 21.97-38.44 37.04-64.47 37.64-14.66.19-29.33.03-44 .09-3.67.41-7.26-2.58-7.43-6.27-.47-3.65 2.69-7.46 6.41-7.41 14.99-.14 29.98.1 44.96-.1 14.17-1.04 28.26-6.2 39.06-15.55 3.96-3.17 4.23-10.03-.29-12.8-4.24-2.12-9.2-1.36-13.78-2.01-15.47-1.45-30.26-8.06-42.35-17.7-3.64-2.95-7.37-7.43-12.6-6.42-17.85 3.4-37.03 2.39-53.67-5.35-17.93-8.15-33.14-22.56-41.5-40.46-7.85-15.53-9.6-33.6-6.96-50.65 2.35-14.3 9.11-27.54 17.76-39.03 15.67-15.99 24.34-38.22 24.5-60.52.11-43.33.02-86.66.05-129.99-.54-27.03 4.03-54.29 14.43-79.31 9.48-23.67 23.95-45.09 41.39-63.6-3.46-3.82-5.91-8.78-5.47-14.05.12-5.36 3.24-10 7.03-13.56-6.29-21.3-12.37-42.66-18.54-63.99-4.64.61-9.58.77-13.86-1.42-6.99-3.15-11.99-10.37-12.01-18.09-.32-7.69 4.29-15.3 11.2-18.66 4.76-2.66 10.59-2.87 15.76-1.39 8.57 2.47 14.9 11.16 14.53 20.08.05 3.56-1.43 6.87-2.82 10.06 9.36.76 18.76 2.12 28.16 1.05 18.05-.91 35.86-5.9 51.79-14.42 31.67-16.59 55.5-47.41 63.36-82.31-5.91-1.99-11.31-6.06-13.63-12-3.86-8.56-.53-19.39 7.21-24.58m8.82 8.81c-5.11 1.69-7.5 8.62-3.97 12.89 3.89 5.59 13.79 4.09 15.56-2.6 2.27-6.58-5.36-13.01-11.59-10.29M346.8 136.76c-20.21 13.84-44.29 22.09-68.78 23.33-9.62 1.16-19.27-.05-28.86-.87 5.69 19.18 11.11 38.44 16.73 57.64 88.28-.17 176.55.01 264.83-.09 5.68-19.46 11.15-38.98 16.96-58.41-10.12 1.08-20.31 2.01-30.46.83-51.82-3.08-100.49-38.34-118.56-87.17-10.11 26.21-28.26 49.41-51.86 64.74m-118.49-8.35c-5.4 1.31-8.26 8.51-4.64 12.94 3.75 5.69 13.77 4.35 15.54-2.36 2.33-6.3-4.72-12.82-10.9-10.58m337.04 1.96c-6.21 2.32-6.53 12-.56 14.81 5.6 3.72 14.28-1.41 13.05-8.19-.36-5.85-7.46-9.26-12.49-6.62m-301.97 99.12c-5.95 1.61-4.64 11.46 1.57 11.28 85.69.02 171.39 0 257.08.01 3.97-.04 7.99.2 11.93-.5 2.18-.36 3.89-2.25 4.45-4.33.98-3.37-1.93-7.18-5.41-7.18-85.33.01-170.67.01-256 0-4.54.06-9.16-.32-13.62.72m4.67 23.34c-14.01 13.09-25.43 28.72-34.85 45.37-14.81 27.45-22.37 58.66-22.47 89.82-.05 39.34 0 78.68-.03 118.03-.04 7 .39 14-.11 21-.93 23.23-10.94 45.8-26.88 62.62-12.97 16.46-19.48 38.65-14.79 59.36 3.2 16.24 12.34 31.39 25.64 41.33 11.96 9.56 27.26 14.39 42.46 14.8 3.68.22 7.76-1.63 8.72-5.46 2.05-4.29-1.98-8.38-1.02-12.71 1.11-2.91 4.04-5.46 7.33-4.91 3.16.03 5.25 2.92 6.39 5.56 6.64 15 19.25 26.99 34.03 33.88 13.52 6.01 28.9 8.18 43.43 4.99 4.18-1.07 9.84-1.2 11.73-5.88 2.34-7.24 3-14.99 2.83-22.58-.02-10.67-.02-21.34.01-32.01.49-4.93-1.62-10.42-6.79-11.81-12.45-5.17-24.38-11.7-35.03-19.99-30.32-22.54-51.27-57-58.06-94.11-3.62-19.18-1.42-38.73-2.31-58.09.29-25.72.04-51.45.14-77.17-.06-4.41 3.9-9.35 8.64-8.45 5.99.77 11.95 1.8 18 2.11 44.88 4.06 90.9-12.86 122.91-44.5 13.18-13.07 23.92-28.53 31.92-45.25 3.65-6.51 14.11-2.95 16 3.31 18.17 41.4 55.22 74.01 98.69 86.54 3.8 1.04 8.2 3.92 8.01 8.36-.02 37.87.1 75.74-.12 113.6-1.13 30.41-12.38 60.16-30.66 84.39-16.98 22.52-40.39 40.09-66.72 50.19-3.75 1.3-6.53 4.85-6.46 8.9-.22 13.62.01 27.26-.1 40.89-.13 5.06.62 10.09 1.62 15.04.58 3.36 3.09 6.7 6.64 7.18 9.7 1.37 19.47 3.94 29.32 2.39 24.05-2.26 46.6-17.76 56.46-39.94 1.13-2.63 3.21-5.51 6.37-5.55 4.99-.75 9.24 5.14 6.89 9.66-2.18 4.4-1.17 11.04 3.97 12.79 5.55 1.46 11.38.07 16.93-.79 21.69-3.91 40.97-18.82 50.2-38.83 6.12-13.64 8.55-29.27 5.09-43.95-2.2-11.19-7.43-21.62-14.22-30.7-12.95-13.58-22.13-30.81-25.74-49.24-2.88-14.18-1.52-28.7-1.77-43.04v-88.97c-.07-15.4.48-30.86-1.57-46.16-3.63-27.17-12.56-53.91-27.73-76.86-8-12.64-17.49-24.39-28.51-34.53-1.19-1.1-2.99-.59-4.43-.75-86.67.16-173.34-.07-260 .12m165.42 80.76c-1.63.57-2.71 1.99-3.66 3.34-18.93 28.14-46.16 50.81-77.69 63.49-25.14 10.81-53.09 13.89-80.21 11.79-2.99.01-6.44.83-8.15 3.52-1.67 2.77-1.67 6.13-1.68 9.27.09 16.68-.03 33.36.06 50.04.63 19.97-1.33 40.13 1.96 59.96 1.22 7.66 3.39 15.13 5.53 22.58 10.91 33.42 35.59 61.86 66.75 78 31.2 16.41 68.78 20.08 102.61 10.28 34.51-9.64 64.64-33.61 82.06-64.88 11.54-20.32 17.11-43.7 17.75-66.96-.04-31.37.17-62.73.08-94.11-.09-2.45-.38-5.04-1.7-7.17-1.56-2.31-4.38-3.13-6.83-4.09-35.74-13.26-66.92-38.6-86.79-71.17-1.79-3.61-6.31-5.7-10.09-3.89z"/><path d="M394.27 151.25c10.16-2.44 21.44 3.82 24.81 13.69 2.94 7.54.92 16.66-4.87 22.3-5.4 5.5-13.85 7.8-21.27 5.65-8.2-2.06-14.79-9.36-15.84-17.77-1.73-10.87 6.44-21.89 17.17-23.87m1.01 12.17c-5.79 1.97-8.61 9.96-4.27 14.68 4.51 5.93 15.12 4.07 17.05-3.22 2.41-7.18-5.87-14.61-12.78-11.46z"/><text y="815" font-size="5" font-weight="bold" font-family="'Helvetica Neue', Helvetica, Arial-Unicode, Arial, Sans-serif">Created by LSE Designs</text><text y="820" font-size="5" font-weight="bold" font-family="'Helvetica Neue', Helvetica, Arial-Unicode, Arial, Sans-serif">from the Noun Project</text></svg>