<svg xmlns="http://www.w3.org/2000/svg" viewBox="0 0 100 125"><path style="isolation:auto;mix-blend-mode:normal;marker:none" d="M21.656 5a2.717 2.717 0 0 0-2.722 2.723v6.18h-2.78c-1.169 0-2.11.942-2.11 2.11 0 1.17.941 2.111 2.11 2.111h11.004c1.169 0 2.11-.941 2.11-2.11 0-1.17-.941-2.11-2.11-2.11h-2.78V7.723A2.716 2.716 0 0 0 21.656 5zm-5.513 14.467v61.066H27.17V19.467H16.143zm12.37 2.64v55.787h57.443V22.106H28.512zm6.196 4.067h5.631a1.511 1.511 0 1 1 0 3.023h-5.631a1.511 1.511 0 1 1 0-3.023zm11.262 0h11.263a1.511 1.511 0 1 1 0 3.023H45.972a1.511 1.511 0 1 1 0-3.023zm16.895 0h5.63a1.511 1.511 0 1 1 0 3.023h-5.63a1.511 1.511 0 1 1 0-3.023zm11.262 0h5.631a1.511 1.511 0 1 1 0 3.023h-5.63a1.511 1.511 0 1 1 0-3.023zm-39.42 7.439h16.895a1.511 1.511 0 1 1 0 3.022H34.709a1.511 1.511 0 1 1 0-3.022zm22.526 0h11.262a1.511 1.511 0 1 1 0 3.022H57.235a1.511 1.511 0 1 1 0-3.022zm16.894 0h5.631a1.511 1.511 0 1 1 0 3.022h-5.63a1.511 1.511 0 1 1 0-3.022zm-39.42 7.437h11.263a1.511 1.511 0 1 1 0 3.023H34.71a1.511 1.511 0 1 1 0-3.023zm16.895 0h11.263a1.511 1.511 0 1 1 0 3.023H51.603a1.511 1.511 0 1 1 0-3.023zm16.894 0h11.262a1.511 1.511 0 1 1 0 3.023H68.497a1.511 1.511 0 1 1 0-3.023zM34.709 48.49h5.631a1.511 1.511 0 1 1 0 3.022h-5.631a1.511 1.511 0 1 1 0-3.022zm11.262 0h11.262a1.511 1.511 0 1 1 0 3.022H45.972a1.511 1.511 0 1 1 0-3.022zm16.895 0h5.63a1.511 1.511 0 1 1 0 3.022h-5.63a1.511 1.511 0 1 1 0-3.022zm11.262 0h5.631a1.511 1.511 0 1 1 0 3.022h-5.63a1.511 1.511 0 1 1 0-3.022zm-39.42 7.438h16.895a1.511 1.511 0 1 1 0 3.023H34.709a1.511 1.511 0 1 1 0-3.023zm22.526 0h5.632a1.511 1.511 0 1 1 0 3.023h-5.632a1.511 1.511 0 1 1 0-3.023zm11.263 0h11.262a1.511 1.511 0 1 1 0 3.023H68.497a1.511 1.511 0 1 1 0-3.023zm-33.788 7.438H45.97a1.511 1.511 0 1 1 0 3.023H34.71a1.511 1.511 0 1 1 0-3.023zm16.894 0h16.893a1.511 1.511 0 1 1 0 3.023H51.604a1.511 1.511 0 1 1 0-3.023zm22.525 0h5.631a1.511 1.511 0 1 1 0 3.023h-5.63a1.511 1.511 0 1 1 0-3.023zm-39.42 7.439h5.632a1.511 1.511 0 1 1 0 3.022h-5.631a1.511 1.511 0 1 1 0-3.022zm11.263 0h22.525a1.511 1.511 0 1 1 0 3.022H45.972a1.511 1.511 0 1 1 0-3.022zm28.157 0h5.631a1.511 1.511 0 1 1 0 3.022h-5.63a1.511 1.511 0 1 1 0-3.022zM16.154 81.876c-1.169 0-2.11.941-2.11 2.11 0 1.17.941 2.11 2.11 2.11h2.78v6.181A2.717 2.717 0 0 0 21.656 95a2.717 2.717 0 0 0 2.722-2.723v-6.181h2.78c1.169 0 2.11-.94 2.11-2.11 0-1.169-.941-2.11-2.11-2.11H16.154z" color="#000" overflow="visible"/><text y="115" font-size="5" font-weight="bold" font-family="'Helvetica Neue', Helvetica, Arial-Unicode, Arial, Sans-serif">Created by Andrew Doane</text><text y="120" font-size="5" font-weight="bold" font-family="'Helvetica Neue', Helvetica, Arial-Unicode, Arial, Sans-serif">from the Noun Project</text></svg>