<svg xmlns="http://www.w3.org/2000/svg" viewBox="0 0 64 80"><path d="M36.879 20.464A3.017 3.017 0 0 1 36 18.343V2a1 1 0 0 0-1-1h-6a1 1 0 0 0-1 1v16.343c0 .79-.32 1.562-.879 2.121l-1.435 1.435A15.895 15.895 0 0 0 21 33.213V60c0 1.654 1.346 3 3 3h16c1.654 0 3-1.346 3-3V33.213c0-4.274-1.664-8.292-4.687-11.313l-1.434-1.436zM34 3v8h-4V3h4zm7 57a1 1 0 0 1-1 1H24a1 1 0 0 1-1-1V33.213c0-3.74 1.456-7.255 4.101-9.899l1.435-1.435a4.968 4.968 0 0 0 1.465-3.535V13h4v5.343c0 1.335.521 2.591 1.465 3.535l1.435 1.435a13.914 13.914 0 0 1 4.099 9.9V60z"/><path d="M25 34v22a1 1 0 0 0 1 1h12a1 1 0 0 0 1-1V34a1 1 0 0 0-1-1H26a1 1 0 0 0-1 1zm2 1h10v20H27V35zM63 38V24a1 1 0 0 0-1-1H46a1 1 0 0 0-1 1v14c0 4.625 3.507 8.442 8 8.941V61h-6v2h14v-2h-6V46.941c4.493-.499 8-4.316 8-8.941zm-2-13v6H47v-6h14zM47 38v-5h14v5c0 3.859-3.141 7-7 7s-7-3.141-7-7zM18 23H2a1 1 0 0 0-1 1v14c0 4.625 3.507 8.442 8 8.941V61H3v2h14v-2h-6V46.941c4.493-.499 8-4.316 8-8.941V24a1 1 0 0 0-1-1zm-1 2v6H3v-6h14zm-7 20c-3.859 0-7-3.141-7-7v-5h14v5c0 3.859-3.141 7-7 7zM18.316 5.051a5.353 5.353 0 0 1-3.368-3.368.998.998 0 0 0-1.896.001 5.353 5.353 0 0 1-3.368 3.368.998.998 0 0 0 0 1.897 5.353 5.353 0 0 1 3.368 3.368.998.998 0 0 0 1.896-.001 5.353 5.353 0 0 1 3.368-3.368.998.998 0 0 0 0-1.897zM14 7.804A7.43 7.43 0 0 0 12.196 6 7.43 7.43 0 0 0 14 4.196 7.43 7.43 0 0 0 15.804 6 7.43 7.43 0 0 0 14 7.804zM46 21a.998.998 0 0 0 .948-.684 5.353 5.353 0 0 1 3.368-3.368.998.998 0 0 0 0-1.897 5.353 5.353 0 0 1-3.368-3.368.998.998 0 0 0-1.896.001 5.353 5.353 0 0 1-3.368 3.368.998.998 0 0 0 0 1.897 5.353 5.353 0 0 1 3.368 3.368A.998.998 0 0 0 46 21zm0-6.804A7.413 7.413 0 0 0 47.804 16 7.43 7.43 0 0 0 46 17.804 7.413 7.413 0 0 0 44.196 16 7.43 7.43 0 0 0 46 14.196z"/><text y="79" font-size="5" font-weight="bold" font-family="'Helvetica Neue', Helvetica, Arial-Unicode, Arial, Sans-serif">Created by Template</text><text y="84" font-size="5" font-weight="bold" font-family="'Helvetica Neue', Helvetica, Arial-Unicode, Arial, Sans-serif">from the Noun Project</text></svg>